<svg xmlns="http://www.w3.org/2000/svg" width="200" height="420" viewBox="0 0 200 420" font-family="Malgun Gothic, Arial, sans-serif"><path d="M104 420 C100 340 112 260 96 180 S74 70 66 24" fill="none" stroke="#6D7C53" stroke-width="3" stroke-linecap="round"/><path d="M98 214 C122 184 140 150 150 96" fill="none" stroke="#6D7C53" stroke-width="3" stroke-linecap="round"/><path d="M95 158 C72 136 52 112 40 72" fill="none" stroke="#6D7C53" stroke-width="3" stroke-linecap="round"/><path d="M101 292 C132 272 152 250 166 212" fill="none" stroke="#6D7C53" stroke-width="3" stroke-linecap="round"/><path d="M100 250 C78 236 58 222 44 190" fill="none" stroke="#6D7C53" stroke-width="3" stroke-linecap="round"/><path d="M103 372 q36 -34 74 -16 q-38 30 -74 16z" fill="#7E8B5E"/><path d="M101 336 q-38 -30 -72 -8 q36 26 72 8z" fill="#6D7C53"/><path d="M99 268 q-30 -14 -50 4 q28 12 50 -4z" fill="#7E8B5E"/><g transform="translate(66.0 22.0) scale(1.500)"><g fill="#E6BE4A" stroke="#C99A2E" stroke-width="0.6"><ellipse cx="0" cy="-5.5" rx="4" ry="5.5"/><ellipse cx="0" cy="5.5" rx="4" ry="5.5"/><ellipse cx="-5.5" cy="0" rx="5.5" ry="4"/><ellipse cx="5.5" cy="0" rx="5.5" ry="4"/></g><circle cx="0" cy="0" r="2.4" fill="#A8652A"/></g><g transform="translate(90.0 32.0) scale(1.167)"><g fill="#E6BE4A" stroke="#C99A2E" stroke-width="0.6"><ellipse cx="0" cy="-5.5" rx="4" ry="5.5"/><ellipse cx="0" cy="5.5" rx="4" ry="5.5"/><ellipse cx="-5.5" cy="0" rx="5.5" ry="4"/><ellipse cx="5.5" cy="0" rx="5.5" ry="4"/></g><circle cx="0" cy="0" r="2.4" fill="#A8652A"/></g><g transform="translate(55.0 43.0) scale(1.083)"><g fill="#B596C6" stroke="#8E6FA3" stroke-width="0.6"><ellipse cx="0" cy="-5.5" rx="4" ry="5.5"/><ellipse cx="0" cy="5.5" rx="4" ry="5.5"/><ellipse cx="-5.5" cy="0" rx="5.5" ry="4"/><ellipse cx="5.5" cy="0" rx="5.5" ry="4"/></g><circle cx="0" cy="0" r="2.4" fill="#F1DFA6"/></g><g transform="translate(37.0 69.0) scale(1.417)"><g fill="#B596C6" stroke="#8E6FA3" stroke-width="0.6"><ellipse cx="0" cy="-5.5" rx="4" ry="5.5"/><ellipse cx="0" cy="5.5" rx="4" ry="5.5"/><ellipse cx="-5.5" cy="0" rx="5.5" ry="4"/><ellipse cx="5.5" cy="0" rx="5.5" ry="4"/></g><circle cx="0" cy="0" r="2.4" fill="#F1DFA6"/></g><g transform="translate(58.0 76.0) scale(1.000)"><g fill="#E6BE4A" stroke="#C99A2E" stroke-width="0.6"><ellipse cx="0" cy="-5.5" rx="4" ry="5.5"/><ellipse cx="0" cy="5.5" rx="4" ry="5.5"/><ellipse cx="-5.5" cy="0" rx="5.5" ry="4"/><ellipse cx="5.5" cy="0" rx="5.5" ry="4"/></g><circle cx="0" cy="0" r="2.4" fill="#A8652A"/></g><g transform="translate(28.0 94.0) scale(1.000)"><g fill="#B596C6" stroke="#8E6FA3" stroke-width="0.6"><ellipse cx="0" cy="-5.5" rx="4" ry="5.5"/><ellipse cx="0" cy="5.5" rx="4" ry="5.5"/><ellipse cx="-5.5" cy="0" rx="5.5" ry="4"/><ellipse cx="5.5" cy="0" rx="5.5" ry="4"/></g><circle cx="0" cy="0" r="2.4" fill="#F1DFA6"/></g><g transform="translate(150.0 90.0) scale(1.500)"><g fill="#E6BE4A" stroke="#C99A2E" stroke-width="0.6"><ellipse cx="0" cy="-5.5" rx="4" ry="5.5"/><ellipse cx="0" cy="5.5" rx="4" ry="5.5"/><ellipse cx="-5.5" cy="0" rx="5.5" ry="4"/><ellipse cx="5.5" cy="0" rx="5.5" ry="4"/></g><circle cx="0" cy="0" r="2.4" fill="#A8652A"/></g><g transform="translate(171.0 109.0) scale(1.083)"><g fill="#B596C6" stroke="#8E6FA3" stroke-width="0.6"><ellipse cx="0" cy="-5.5" rx="4" ry="5.5"/><ellipse cx="0" cy="5.5" rx="4" ry="5.5"/><ellipse cx="-5.5" cy="0" rx="5.5" ry="4"/><ellipse cx="5.5" cy="0" rx="5.5" ry="4"/></g><circle cx="0" cy="0" r="2.4" fill="#F1DFA6"/></g><g transform="translate(138.0 114.0) scale(1.000)"><g fill="#E6BE4A" stroke="#C99A2E" stroke-width="0.6"><ellipse cx="0" cy="-5.5" rx="4" ry="5.5"/><ellipse cx="0" cy="5.5" rx="4" ry="5.5"/><ellipse cx="-5.5" cy="0" rx="5.5" ry="4"/><ellipse cx="5.5" cy="0" rx="5.5" ry="4"/></g><circle cx="0" cy="0" r="2.4" fill="#A8652A"/></g><g transform="translate(167.0 207.0) scale(1.417)"><g fill="#B596C6" stroke="#8E6FA3" stroke-width="0.6"><ellipse cx="0" cy="-5.5" rx="4" ry="5.5"/><ellipse cx="0" cy="5.5" rx="4" ry="5.5"/><ellipse cx="-5.5" cy="0" rx="5.5" ry="4"/><ellipse cx="5.5" cy="0" rx="5.5" ry="4"/></g><circle cx="0" cy="0" r="2.4" fill="#F1DFA6"/></g><g transform="translate(184.0 222.0) scale(1.000)"><g fill="#E6BE4A" stroke="#C99A2E" stroke-width="0.6"><ellipse cx="0" cy="-5.5" rx="4" ry="5.5"/><ellipse cx="0" cy="5.5" rx="4" ry="5.5"/><ellipse cx="-5.5" cy="0" rx="5.5" ry="4"/><ellipse cx="5.5" cy="0" rx="5.5" ry="4"/></g><circle cx="0" cy="0" r="2.4" fill="#A8652A"/></g><g transform="translate(40.0 186.0) scale(1.333)"><g fill="#E6BE4A" stroke="#C99A2E" stroke-width="0.6"><ellipse cx="0" cy="-5.5" rx="4" ry="5.5"/><ellipse cx="0" cy="5.5" rx="4" ry="5.5"/><ellipse cx="-5.5" cy="0" rx="5.5" ry="4"/><ellipse cx="5.5" cy="0" rx="5.5" ry="4"/></g><circle cx="0" cy="0" r="2.4" fill="#A8652A"/></g><g transform="translate(61.0 199.0) scale(0.917)"><g fill="#B596C6" stroke="#8E6FA3" stroke-width="0.6"><ellipse cx="0" cy="-5.5" rx="4" ry="5.5"/><ellipse cx="0" cy="5.5" rx="4" ry="5.5"/><ellipse cx="-5.5" cy="0" rx="5.5" ry="4"/><ellipse cx="5.5" cy="0" rx="5.5" ry="4"/></g><circle cx="0" cy="0" r="2.4" fill="#F1DFA6"/></g><g transform="translate(95.0 131.0) scale(0.917)"><g fill="#B596C6" stroke="#8E6FA3" stroke-width="0.6"><ellipse cx="0" cy="-5.5" rx="4" ry="5.5"/><ellipse cx="0" cy="5.5" rx="4" ry="5.5"/><ellipse cx="-5.5" cy="0" rx="5.5" ry="4"/><ellipse cx="5.5" cy="0" rx="5.5" ry="4"/></g><circle cx="0" cy="0" r="2.4" fill="#F1DFA6"/></g></svg>